<svg width="18" height="18" viewBox="0 0 18 18" fill="none" xmlns="http://www.w3.org/2000/svg">
<path d="M15.9375 8.99992H6.67125M6.67125 8.99992C6.67125 9.43355 6.49824 9.84942 6.19162 10.156C5.885 10.4627 5.46913 10.6349 5.0355 10.6349C4.60187 10.6349 4.186 10.4627 3.87938 10.156C3.57276 9.84942 3.4005 9.43355 3.4005 8.99992M6.67125 8.99992C6.67125 8.56629 6.49824 8.15042 6.19162 7.8438C5.885 7.53718 5.46913 7.36492 5.0355 7.36492C4.60187 7.36492 4.186 7.53718 3.87938 7.8438C3.57276 8.15042 3.4005 8.56629 3.4005 8.99992M3.4005 8.99992H2.0625M15.9375 13.9552H11.6265M11.6265 13.9552C11.6265 14.3889 11.4538 14.8052 11.1471 15.1119C10.8404 15.4186 10.4245 15.5909 9.99075 15.5909C9.55712 15.5909 9.14125 15.4179 8.83463 15.1113C8.52801 14.8047 8.35575 14.3888 8.35575 13.9552M11.6265 13.9552C11.6265 13.5214 11.4538 13.1058 11.1471 12.7992C10.8404 12.4925 10.4245 12.3202 9.99075 12.3202C9.55712 12.3202 9.14125 12.4924 8.83463 12.799C8.52801 13.1057 8.35575 13.5215 8.35575 13.9552M8.35575 13.9552H2.0625M15.9375 4.04467H13.6088M13.6088 4.04467C13.6088 4.25938 13.5657 4.47199 13.4835 4.67036C13.4014 4.86872 13.2809 5.04896 13.1291 5.20079C12.9773 5.35261 12.7971 5.47304 12.5987 5.55521C12.4003 5.63738 12.1877 5.67967 11.973 5.67967C11.5394 5.67967 11.1235 5.50741 10.8169 5.20079C10.5103 4.89417 10.338 4.4783 10.338 4.04467M13.6088 4.04467C13.6088 3.82996 13.5657 3.61735 13.4835 3.41898C13.4014 3.22061 13.2809 3.04037 13.1291 2.88855C12.9773 2.73672 12.7971 2.61629 12.5987 2.53412C12.4003 2.45196 12.1877 2.40967 11.973 2.40967C11.5394 2.40967 11.1235 2.58193 10.8169 2.88855C10.5103 3.19517 10.338 3.61104 10.338 4.04467M10.338 4.04467H2.0625" stroke="black" stroke-width="0.96" stroke-miterlimit="10" stroke-linecap="round"/>
<path d="M15.9375 8.99992H6.67125M6.67125 8.99992C6.67125 9.43355 6.49824 9.84942 6.19162 10.156C5.885 10.4627 5.46913 10.6349 5.0355 10.6349C4.60187 10.6349 4.186 10.4627 3.87938 10.156C3.57276 9.84942 3.4005 9.43355 3.4005 8.99992M6.67125 8.99992C6.67125 8.56629 6.49824 8.15042 6.19162 7.8438C5.885 7.53718 5.46913 7.36492 5.0355 7.36492C4.60187 7.36492 4.186 7.53718 3.87938 7.8438C3.57276 8.15042 3.4005 8.56629 3.4005 8.99992M3.4005 8.99992H2.0625M15.9375 13.9552H11.6265M11.6265 13.9552C11.6265 14.3889 11.4538 14.8052 11.1471 15.1119C10.8404 15.4186 10.4245 15.5909 9.99075 15.5909C9.55712 15.5909 9.14125 15.4179 8.83463 15.1113C8.52801 14.8047 8.35575 14.3888 8.35575 13.9552M11.6265 13.9552C11.6265 13.5214 11.4538 13.1058 11.1471 12.7992C10.8404 12.4925 10.4245 12.3202 9.99075 12.3202C9.55712 12.3202 9.14125 12.4924 8.83463 12.799C8.52801 13.1057 8.35575 13.5215 8.35575 13.9552M8.35575 13.9552H2.0625M15.9375 4.04467H13.6088M13.6088 4.04467C13.6088 4.25938 13.5657 4.47199 13.4835 4.67036C13.4014 4.86872 13.2809 5.04896 13.1291 5.20079C12.9773 5.35261 12.7971 5.47304 12.5987 5.55521C12.4003 5.63738 12.1877 5.67967 11.973 5.67967C11.5394 5.67967 11.1235 5.50741 10.8169 5.20079C10.5103 4.89417 10.338 4.4783 10.338 4.04467M13.6088 4.04467C13.6088 3.82996 13.5657 3.61735 13.4835 3.41898C13.4014 3.22061 13.2809 3.04037 13.1291 2.88855C12.9773 2.73672 12.7971 2.61629 12.5987 2.53412C12.4003 2.45196 12.1877 2.40967 11.973 2.40967C11.5394 2.40967 11.1235 2.58193 10.8169 2.88855C10.5103 3.19517 10.338 3.61104 10.338 4.04467M10.338 4.04467H2.0625" stroke="black" stroke-width="0.96" stroke-miterlimit="10" stroke-linecap="round"/>
</svg>
