<svg width="32" height="32" viewBox="0 0 32 32" fill="none" xmlns="http://www.w3.org/2000/svg">
<path d="M16.0613 5.9388C16.2011 6.07816 16.3121 6.24375 16.3878 6.42607C16.4635 6.6084 16.5025 6.80388 16.5025 7.0013C16.5025 7.19873 16.4635 7.3942 16.3878 7.57653C16.3121 7.75886 16.2011 7.92445 16.0613 8.0638L8.12505 16.0001L16.0613 23.9388C16.3431 24.2206 16.5014 24.6028 16.5014 25.0013C16.5014 25.3998 16.3431 25.782 16.0613 26.0638C15.7795 26.3456 15.3973 26.5039 14.9988 26.5039C14.6003 26.5039 14.2181 26.3456 13.9363 26.0638L4.9363 17.0638C4.79646 16.9244 4.6855 16.7589 4.6098 16.5765C4.53409 16.3942 4.49512 16.1987 4.49512 16.0013C4.49512 15.8039 4.53409 15.6084 4.6098 15.4261C4.6855 15.2437 4.79646 15.0782 4.9363 14.9388L13.9363 5.9388C14.0757 5.79896 14.2412 5.68801 14.4236 5.6123C14.6059 5.53659 14.8014 5.49762 14.9988 5.49762C15.1962 5.49762 15.3917 5.53659 15.574 5.6123C15.7564 5.68801 15.9219 5.79896 16.0613 5.9388Z" fill="black"/>
</svg>
