<svg width="20" height="20" viewBox="0 0 20 20" fill="none" xmlns="http://www.w3.org/2000/svg">
<path d="M7.86963 10.3613C8.22751 10.8397 8.6841 11.2356 9.20842 11.5221C9.73275 11.8085 10.3126 11.9789 10.9085 12.0216C11.5045 12.0643 12.1026 11.9783 12.6624 11.7695C13.2222 11.5606 13.7306 11.2339 14.153 10.8113L16.653 8.3113C17.412 7.52546 17.8319 6.47295 17.8224 5.38046C17.8129 4.28797 17.3747 3.24292 16.6022 2.47039C15.8297 1.69785 14.7846 1.25965 13.6921 1.25016C12.5996 1.24066 11.5471 1.66064 10.7613 2.41963L9.32797 3.84463M11.203 8.69463C10.8451 8.21619 10.3885 7.82031 9.86417 7.53385C9.33985 7.24739 8.76004 7.07704 8.16409 7.03435C7.56814 6.99167 6.96998 7.07766 6.41018 7.28648C5.85038 7.4953 5.34204 7.82207 4.91963 8.24463L2.41963 10.7446C1.66064 11.5305 1.24066 12.583 1.25016 13.6755C1.25965 14.768 1.69785 15.813 2.47039 16.5855C3.24292 17.3581 4.28797 17.7963 5.38046 17.8058C6.47295 17.8153 7.52546 17.3953 8.3113 16.6363L9.7363 15.2113" stroke="#1E1E1E" stroke-width="2.5" stroke-linecap="round" stroke-linejoin="round"/>
</svg>
