<svg width="19" height="20" viewBox="0 0 19 20" fill="none" xmlns="http://www.w3.org/2000/svg">
<g clip-path="url(#clip0_2061_590)">
<path d="M13.4583 10.8335L10.2917 18.3335C9.66178 18.3335 9.05769 18.0701 8.61229 17.6012C8.16689 17.1324 7.91667 16.4965 7.91667 15.8335V12.5001H3.43583C3.20632 12.5029 2.97899 12.4531 2.76959 12.3541C2.56019 12.2552 2.37372 12.1095 2.22311 11.9272C2.0725 11.7449 1.96135 11.5303 1.89736 11.2983C1.83336 11.0662 1.81806 10.8223 1.8525 10.5835L2.945 3.08347C3.00225 2.68605 3.19403 2.3238 3.48499 2.06347C3.77595 1.80313 4.14649 1.66226 4.52833 1.66681H13.4583M13.4583 10.8335V1.66681M13.4583 10.8335H15.5721C16.0201 10.8418 16.4555 10.6767 16.7955 10.3695C17.1356 10.0622 17.3566 9.63426 17.4167 9.16681V3.33347C17.3566 2.86602 17.1356 2.43806 16.7955 2.13082C16.4555 1.82358 16.0201 1.65846 15.5721 1.66681H13.4583" stroke="#1E1E1E" stroke-width="2.5" stroke-linecap="round" stroke-linejoin="round"/>
</g>
<defs>
<clipPath id="clip0_2061_590">
<rect width="19" height="20" fill="white"/>
</clipPath>
</defs>
</svg>
