<svg width="19" height="21" viewBox="0 0 19 21" fill="none" xmlns="http://www.w3.org/2000/svg">
<path d="M9.375 4.5C9.375 4.79837 9.25647 5.08452 9.0455 5.2955C8.83452 5.50647 8.54837 5.625 8.25 5.625H6.75C6.45163 5.625 6.16548 5.50647 5.9545 5.2955C5.74353 5.08452 5.625 4.79837 5.625 4.5C5.625 4.20163 5.74353 3.91548 5.9545 3.7045C6.16548 3.49353 6.45163 3.375 6.75 3.375H8.25C8.54837 3.375 8.83452 3.49353 9.0455 3.7045C9.25647 3.91548 9.375 4.20163 9.375 4.5ZM13.8891 16.4644L14.2313 18.8597C14.2693 19.1256 14.2497 19.3967 14.1738 19.6544C14.098 19.9121 13.9676 20.1505 13.7916 20.3535C13.6156 20.5564 13.398 20.7192 13.1536 20.8308C12.9092 20.9423 12.6437 21 12.375 21H6.375C6.10634 21 5.84082 20.9423 5.59641 20.8308C5.352 20.7192 5.13442 20.5564 4.9584 20.3535C4.78237 20.1505 4.65202 19.9121 4.57617 19.6544C4.50032 19.3967 4.48073 19.1256 4.51875 18.8597L4.86094 16.4644C3.38988 15.6553 2.16286 14.4663 1.30786 13.0215C0.452865 11.5767 0.00120678 9.92887 0 8.25C0 7.95163 0.118526 7.66548 0.329505 7.4545C0.540483 7.24353 0.826631 7.125 1.125 7.125H2.25V1.875C2.25 1.37772 2.44754 0.900805 2.79917 0.549175C3.15081 0.197544 3.62772 0 4.125 0H14.625C15.1223 0 15.5992 0.197544 15.9508 0.549175C16.3025 0.900805 16.5 1.37772 16.5 1.875V7.125H17.625C17.9234 7.125 18.2095 7.24353 18.4205 7.4545C18.6315 7.66548 18.75 7.95163 18.75 8.25C18.7488 9.92887 18.2971 11.5767 17.4421 13.0215C16.5871 14.4663 15.3601 15.6553 13.8891 16.4644ZM4.5 7.125H14.25V2.25H4.5V7.125ZM11.7384 17.3231C10.1885 17.7256 8.56148 17.7256 7.01156 17.3231L6.80719 18.75H11.9428L11.7384 17.3231ZM16.4109 9.375H2.34375C2.61092 11.0488 3.46606 12.5726 4.75562 13.6726C6.04518 14.7727 7.68467 15.377 9.37969 15.377C11.0747 15.377 12.7142 14.7727 14.0038 13.6726C15.2933 12.5726 16.1485 11.0488 16.4156 9.375H16.4109Z" fill="black"/>
</svg>
