<svg width="24" height="18" viewBox="0 0 24 18" fill="none" xmlns="http://www.w3.org/2000/svg">
<path d="M11.8333 2.08333V1M11.8333 2.08333C10.6841 2.08333 9.58186 2.53988 8.7692 3.35254C7.95655 4.16519 7.5 5.2674 7.5 6.41667M11.8333 2.08333C12.9826 2.08333 14.0848 2.53988 14.8975 3.35254C15.7101 4.16519 16.1667 5.2674 16.1667 6.41667M5.33333 6.41667H18.3333M11.8333 6.41667V16.1667M7.5 16.1667V11.8333C7.5 11.1833 7.06667 10.75 6.41667 10.75H1M1 4.25V16.1667M16.1667 16.1667V11.8333C16.1667 11.546 16.2808 11.2705 16.484 11.0673C16.6871 10.8641 16.9627 10.75 17.25 10.75H22.6667M22.6667 4.25V16.1667" stroke="black" stroke-width="2" stroke-linecap="round" stroke-linejoin="round"/>
</svg>
