<svg width="20" height="18" viewBox="0 0 20 18" fill="none" xmlns="http://www.w3.org/2000/svg">
<path d="M2.16667 6.5L3.79167 1.625H15.7083L17.3333 6.5M15.7083 11.9167C15.2774 11.9167 14.864 11.7455 14.5593 11.4407C14.2545 11.136 14.0833 10.7226 14.0833 10.2917C14.0833 9.86069 14.2545 9.44736 14.5593 9.14262C14.864 8.83787 15.2774 8.66667 15.7083 8.66667C16.1393 8.66667 16.5526 8.83787 16.8574 9.14262C17.1621 9.44736 17.3333 9.86069 17.3333 10.2917C17.3333 10.7226 17.1621 11.136 16.8574 11.4407C16.5526 11.7455 16.1393 11.9167 15.7083 11.9167ZM3.79167 11.9167C3.36069 11.9167 2.94736 11.7455 2.64262 11.4407C2.33787 11.136 2.16667 10.7226 2.16667 10.2917C2.16667 9.86069 2.33787 9.44736 2.64262 9.14262C2.94736 8.83787 3.36069 8.66667 3.79167 8.66667C4.22264 8.66667 4.63597 8.83787 4.94072 9.14262C5.24546 9.44736 5.41667 9.86069 5.41667 10.2917C5.41667 10.7226 5.24546 11.136 4.94072 11.4407C4.63597 11.7455 4.22264 11.9167 3.79167 11.9167ZM17.2467 1.08333C17.03 0.455 16.4233 0 15.7083 0H3.79167C3.07667 0 2.47 0.455 2.25333 1.08333L0 7.58333V16.25C0 16.5373 0.114137 16.8129 0.317301 17.016C0.520465 17.2192 0.796016 17.3333 1.08333 17.3333H2.16667C2.45398 17.3333 2.72953 17.2192 2.9327 17.016C3.13586 16.8129 3.25 16.5373 3.25 16.25V15.1667H16.25V16.25C16.25 16.5373 16.3641 16.8129 16.5673 17.016C16.7705 17.2192 17.046 17.3333 17.3333 17.3333H18.4167C18.704 17.3333 18.9795 17.2192 19.1827 17.016C19.3859 16.8129 19.5 16.5373 19.5 16.25V7.58333L17.2467 1.08333Z" fill="black"/>
</svg>
