<svg width="19" height="24" viewBox="0 0 19 24" fill="none" xmlns="http://www.w3.org/2000/svg">
<path d="M9.41687 16.9997C13.4902 16.9997 16.9103 14.2263 17.8712 10.478C18.0944 9.60592 18.206 9.17042 17.8788 8.75117C17.5516 8.33301 17.0208 8.33301 15.9591 8.33301H2.87462C1.81295 8.33301 1.28212 8.33301 0.954953 8.75117C0.627786 9.17042 0.73937 9.60592 0.962536 10.478C1.92345 14.2263 5.34462 16.9997 9.41687 16.9997Z" stroke="black" stroke-width="1.5"/>
<path d="M9.41667 8.33333V2.375C9.41667 1.94402 9.58787 1.5307 9.89262 1.22595C10.1974 0.921205 10.6107 0.75 11.0417 0.75C11.4726 0.75 11.886 0.921205 12.1907 1.22595C12.4955 1.5307 12.6667 1.94402 12.6667 2.375M6.16667 8.33333V7.25C6.16667 6.22842 6.16667 5.71817 5.84925 5.40075C5.53183 5.08333 5.02158 5.08333 4 5.08333M12.6667 6.16667V8.33333M6.16667 16.4583L6.86217 20.2847C6.97012 20.8836 7.28507 21.4255 7.75199 21.8158C8.21891 22.2061 8.80811 22.4199 9.41667 22.4199C10.0252 22.4199 10.6144 22.2061 11.0813 21.8158C11.5483 21.4255 11.8632 20.8836 11.9712 20.2847L12.6667 16.4583" stroke="black" stroke-width="1.5" stroke-linecap="round" stroke-linejoin="round"/>
</svg>
