<svg width="22" height="20" viewBox="0 0 22 20" fill="none" xmlns="http://www.w3.org/2000/svg">
<path fill-rule="evenodd" clip-rule="evenodd" d="M5.41667 3.25C5.41667 2.96268 5.5308 2.68713 5.73397 2.48397C5.93713 2.2808 6.21268 2.16667 6.5 2.16667H7.58333V3.25C7.58333 3.53732 7.69747 3.81287 7.90063 4.01603C8.1038 4.2192 8.37935 4.33333 8.66667 4.33333C8.95398 4.33333 9.22953 4.2192 9.4327 4.01603C9.63586 3.81287 9.75 3.53732 9.75 3.25V2.16667C9.75 1.59203 9.52173 1.04093 9.1154 0.634602C8.70907 0.228273 8.15797 0 7.58333 0H6.5C5.63805 0 4.8114 0.34241 4.2019 0.951903C3.59241 1.5614 3.25 2.38805 3.25 3.25V8.66667H2.16667C1.59203 8.66667 1.04093 8.89494 0.634602 9.30127C0.228273 9.7076 4.2242e-09 10.2587 4.2242e-09 10.8333V11.9167C-3.81989e-05 12.9764 0.259053 14.0202 0.754703 14.9569C1.25035 15.8936 1.96753 16.695 2.84375 17.2911L2.48408 17.6507C2.38061 17.7507 2.29808 17.8702 2.24131 18.0024C2.18453 18.1346 2.15465 18.2767 2.1534 18.4206C2.15215 18.5644 2.17956 18.7071 2.23403 18.8402C2.2885 18.9733 2.36894 19.0943 2.47065 19.196C2.57237 19.2977 2.69333 19.3782 2.82647 19.4326C2.9596 19.4871 3.10226 19.5145 3.2461 19.5133C3.38995 19.512 3.5321 19.4821 3.66427 19.4254C3.79644 19.3686 3.91598 19.2861 4.01592 19.1826L4.96492 18.2347C5.45675 18.3538 5.97133 18.4167 6.5 18.4167H15.1667C15.6953 18.4167 16.2099 18.3538 16.7017 18.2347L17.6507 19.1826C17.8551 19.3799 18.1287 19.4891 18.4128 19.4866C18.6968 19.4842 18.9685 19.3702 19.1694 19.1694C19.3702 18.9685 19.4842 18.6968 19.4866 18.4128C19.4891 18.1287 19.3799 17.8551 19.1826 17.6507L18.8229 17.2911C19.6991 16.695 20.4163 15.8936 20.912 14.9569C21.4076 14.0202 21.6667 12.9764 21.6667 11.9167V10.8333C21.6667 10.2587 21.4384 9.7076 21.0321 9.30127C20.6257 8.89494 20.0746 8.66667 19.5 8.66667H5.41667V3.25ZM2.16667 10.8333H19.5V11.9167C19.5 13.0659 19.0435 14.1681 18.2308 14.9808C17.4181 15.7935 16.3159 16.25 15.1667 16.25H6.5C5.35073 16.25 4.24853 15.7935 3.43587 14.9808C2.62321 14.1681 2.16667 13.0659 2.16667 11.9167V10.8333Z" fill="black"/>
</svg>
