<svg width="20" height="20" viewBox="0 0 20 20" fill="none" xmlns="http://www.w3.org/2000/svg">
<path d="M18.75 14.75C17.4239 14.75 16.1521 14.2232 15.2145 13.2855C14.2768 12.3479 13.75 11.0761 13.75 9.75C13.75 8.42392 14.2768 7.15215 15.2145 6.21447C16.1521 5.27678 17.4239 4.75 18.75 4.75" stroke="black" stroke-width="1.5" stroke-linecap="round"/>
<path d="M18.75 18.75C17.5681 18.75 16.3978 18.5172 15.3058 18.0649C14.2139 17.6126 13.2218 16.9497 12.386 16.114C11.5503 15.2782 10.8874 14.2861 10.4351 13.1942C9.98279 12.1022 9.75 10.9319 9.75 9.75C9.75 8.5681 9.98279 7.39778 10.4351 6.30585C10.8874 5.21392 11.5503 4.22177 12.386 3.38604C13.2218 2.55031 14.2139 1.88738 15.3058 1.43508C16.3978 0.982792 17.5681 0.75 18.75 0.75" stroke="black" stroke-width="1.5" stroke-linecap="round"/>
<path d="M3.75 0.75V5.75M3.75 18.75V8.75M1.25 5.75H6.25M6.75 0.75V5.102C6.75 9.966 0.75 9.966 0.75 5.102V0.75" stroke="black" stroke-width="1.5" stroke-linecap="round" stroke-linejoin="round"/>
</svg>
