<svg width="22" height="22" viewBox="0 0 22 22" fill="none" xmlns="http://www.w3.org/2000/svg">
<path d="M8.63789 6.0516C8.63789 6.71176 8.63789 7.3516 8.84609 7.95082C6.65742 10.5204 0.878516 17.3098 0.340234 17.8278C0.233252 17.9238 0.14767 18.0412 0.089052 18.1724C0.0304338 18.3037 9.21496e-05 18.4458 0 18.5895C0 19.0211 0.264062 19.4375 0.4875 19.6711C0.822656 20.0215 2.25469 21.3469 2.51875 21.093C3.30078 20.3313 3.4582 20.1282 3.77813 19.8133C4.26055 19.3411 3.72734 18.3762 3.89492 17.9852C4.0625 17.5942 4.24023 17.518 4.52969 17.4571C4.81914 17.3961 5.33203 17.6043 5.7332 17.6094C6.15469 17.6145 6.3832 17.4368 6.69805 17.1422C6.95195 16.9086 7.13477 16.6903 7.13984 16.35C7.15 15.893 6.48984 15.2887 6.98242 14.8063C7.475 14.3239 8.18594 15.1211 8.70898 15.0602C9.23203 14.9993 9.8668 14.2731 9.93281 13.9633C9.99883 13.6536 9.33867 12.8563 9.44023 12.4043C9.47578 12.252 9.78555 11.8965 10.0191 11.8457C10.2527 11.795 11.2887 12.1961 11.5223 12.1454C11.8066 12.0844 12.1367 11.7848 12.4059 11.6172C13.193 11.9575 13.909 12.0946 14.8281 12.0946C18.3066 12.0946 21.125 9.38285 21.125 6.04145C21.125 2.70004 18.3066 0 14.8281 0C11.3496 0 8.63789 2.7102 8.63789 6.0516ZM17.875 4.875C17.875 5.19639 17.7797 5.51057 17.6011 5.7778C17.4226 6.04503 17.1688 6.25331 16.8719 6.3763C16.5749 6.4993 16.2482 6.53148 15.933 6.46878C15.6178 6.40608 15.3282 6.25131 15.101 6.02405C14.8737 5.79679 14.7189 5.50724 14.6562 5.19202C14.5935 4.8768 14.6257 4.55007 14.7487 4.25314C14.8717 3.95621 15.08 3.70242 15.3472 3.52386C15.6144 3.3453 15.9286 3.25 16.25 3.25C16.681 3.25 17.0943 3.4212 17.399 3.72595C17.7038 4.0307 17.875 4.44402 17.875 4.875Z" fill="black"/>
</svg>
