<svg width="22" height="22" viewBox="0 0 22 22" fill="none" xmlns="http://www.w3.org/2000/svg">
<path d="M4.26087 2.03125C3.88376 2.03125 3.5221 2.18105 3.25545 2.44771C2.9888 2.71436 2.83899 3.07602 2.83899 3.45312V3.85938C2.83899 4.12874 2.73199 4.38706 2.54152 4.57753C2.35105 4.768 2.09273 4.875 1.82337 4.875C1.55401 4.875 1.29568 4.768 1.10521 4.57753C0.914744 4.38706 0.807741 4.12874 0.807741 3.85938V3.45312C0.807741 2.5373 1.17155 1.65898 1.81914 1.0114C2.46672 0.36381 3.34504 0 4.26087 0C5.17669 0 6.05501 0.36381 6.70259 1.0114C7.35018 1.65898 7.71399 2.5373 7.71399 3.45312V6.90625H15.4327V3.45312C15.4327 3.07602 15.2829 2.71436 15.0163 2.44771C14.7496 2.18105 14.388 2.03125 14.0109 2.03125C13.6338 2.03125 13.2721 2.18105 13.0054 2.44771C12.7388 2.71436 12.589 3.07602 12.589 3.45312V3.85938C12.589 4.12874 12.482 4.38706 12.2915 4.57753C12.1011 4.768 11.8427 4.875 11.5734 4.875C11.304 4.875 11.0457 4.768 10.8552 4.57753C10.6647 4.38706 10.5577 4.12874 10.5577 3.85938V3.45312C10.5577 2.5373 10.9216 1.65898 11.5691 1.0114C12.2167 0.36381 13.095 0 14.0109 0C14.9267 0 15.805 0.36381 16.4526 1.0114C17.1002 1.65898 17.464 2.5373 17.464 3.45312V12.7294C16.801 12.905 16.1185 12.9959 15.4327 13V8.9375H7.71399V10.5462C7.0491 10.3661 6.36923 10.2467 5.68274 10.1896V3.45312C5.68274 3.07602 5.53294 2.71436 5.26628 2.44771C4.99963 2.18105 4.63797 2.03125 4.26087 2.03125ZM0.308866 12.9139L0.310491 12.9123L0.311304 12.9114L0.313741 12.909L0.319429 12.9033L0.335679 12.8887L0.380366 12.8481C0.417199 12.8166 0.466491 12.7766 0.528241 12.7278C0.695482 12.5971 0.871085 12.4774 1.05393 12.3695C1.66501 12.0078 2.32823 11.7425 3.02018 11.583C4.7573 11.1751 7.20618 11.2523 10.2823 12.8781C13.0026 14.3162 15.3442 14.3666 16.9895 14.0806C17.6538 13.9674 18.3028 13.7774 18.9232 13.5143C19.1326 13.4238 19.3371 13.3224 19.5359 13.2104L19.5578 13.1966C19.6701 13.1247 19.7955 13.0763 19.9268 13.0528C20.0581 13.0293 20.1927 13.0319 20.323 13.0604C20.4533 13.0889 20.5767 13.1428 20.6862 13.219C20.7956 13.2952 20.889 13.3923 20.961 13.5046C21.033 13.6169 21.0821 13.7422 21.1056 13.8735C21.1291 14.0048 21.1266 14.1395 21.098 14.2698C21.0695 14.4001 21.0156 14.5235 20.9394 14.6329C20.8632 14.7424 20.7662 14.8358 20.6539 14.9077L20.6514 14.9086L20.649 14.9102L20.6433 14.9143L20.6254 14.9248C20.5474 14.9733 20.4677 15.0191 20.3866 15.0621C20.2297 15.1466 20.0071 15.2587 19.7244 15.3806C19.1589 15.6236 18.3472 15.9063 17.3372 16.0818C15.306 16.4352 12.4988 16.3475 9.3333 14.6737C6.65774 13.26 4.70937 13.273 3.48493 13.5606C2.99769 13.6719 2.53046 13.8574 2.09962 14.1107C1.96398 14.1919 1.83445 14.2828 1.71205 14.3829L1.70555 14.3886C1.50936 14.5702 1.24946 14.6671 0.982253 14.6583C0.715045 14.6495 0.462077 14.5357 0.278234 14.3416C0.0943898 14.1475 -0.00550079 13.8888 0.000233954 13.6215C0.0059687 13.3542 0.116866 13.0999 0.308866 12.9139ZM0.308866 17.7889L0.310491 17.7873L0.311304 17.7864L0.313741 17.784L0.319429 17.7783L0.335679 17.7637L0.380366 17.7231C0.417199 17.6916 0.466491 17.6516 0.528241 17.6028C0.695482 17.4721 0.871085 17.3524 1.05393 17.2445C1.66501 16.8828 2.32823 16.6175 3.02018 16.458C4.7573 16.0501 7.20618 16.1273 10.2823 17.7531C13.0026 19.1912 15.3442 19.2416 16.9895 18.9556C17.6538 18.8424 18.3028 18.6524 18.9232 18.3893C19.1326 18.2988 19.3371 18.1974 19.5359 18.0854L19.5578 18.0716C19.6701 17.9997 19.7955 17.9513 19.9268 17.9278C20.0581 17.9043 20.1927 17.9069 20.323 17.9354C20.4533 17.9639 20.5767 18.0178 20.6862 18.094C20.7956 18.1702 20.889 18.2673 20.961 18.3796C21.033 18.4919 21.0821 18.6172 21.1056 18.7485C21.1291 18.8798 21.1266 19.0145 21.098 19.1448C21.0695 19.2751 21.0156 19.3985 20.9394 19.5079C20.8632 19.6174 20.7662 19.7108 20.6539 19.7827L20.6514 19.7836L20.649 19.7852L20.6433 19.7893L20.6254 19.7998C20.5474 19.8483 20.4677 19.8941 20.3866 19.9371C20.2297 20.0216 20.0071 20.1338 19.7244 20.2556C19.1589 20.4986 18.3472 20.7813 17.3372 20.9568C15.306 21.3102 12.4988 21.2225 9.3333 19.5487C6.65774 18.135 4.70937 18.148 3.48493 18.4356C2.99769 18.5469 2.53046 18.7324 2.09962 18.9857C1.96398 19.0669 1.83445 19.1578 1.71205 19.2579L1.70555 19.2636C1.50936 19.4452 1.24946 19.5421 0.982253 19.5333C0.715045 19.5245 0.462077 19.4107 0.278234 19.2166C0.0943898 19.0225 -0.00550079 18.7638 0.000233954 18.4965C0.0059687 18.2292 0.116866 17.9749 0.308866 17.7889Z" fill="black"/>
</svg>
