<svg width="22" height="20" viewBox="0 0 22 20" fill="none" xmlns="http://www.w3.org/2000/svg">
<path d="M10.7317 11.75V0.75M10.7317 11.75C9.07375 11.75 7.72875 13.185 7.72875 14.375C7.72875 16.125 9.07375 18.75 10.7317 18.75C12.3897 18.75 13.7347 16.125 13.7347 14.375C13.7347 13.185 12.3897 11.75 10.7317 11.75ZM3.72675 7.778V18.75M2.43475 0.88L1.65175 0.958C1.51645 0.971358 1.3853 1.01216 1.26631 1.07792C1.14732 1.14368 1.04298 1.23301 0.959685 1.34046C0.876386 1.44791 0.815871 1.57121 0.781838 1.70284C0.747806 1.83446 0.74097 1.97164 0.761749 2.106L1.43175 6.421C1.54475 7.152 2.17475 7.761 2.91475 7.761H4.53875C5.27875 7.761 5.90875 7.152 6.02275 6.421L6.69175 2.106C6.71253 1.97164 6.70569 1.83446 6.67166 1.70284C6.63763 1.57121 6.57711 1.44791 6.49381 1.34046C6.41051 1.23301 6.30618 1.14368 6.18719 1.07792C6.0682 1.01216 5.93704 0.971358 5.80175 0.958L5.02175 0.88C4.16156 0.793985 3.29494 0.793985 2.43475 0.88Z" stroke="black" stroke-width="1.5" stroke-linecap="round"/>
<path d="M16.7451 11.5674V0.775391C17.9041 1.09539 19.8301 2.30239 20.1501 5.27739L20.7231 9.79139C20.8231 10.5844 20.6221 11.3754 19.8331 11.5114C19.1731 11.6244 18.1721 11.6614 16.7451 11.5674ZM16.7451 11.5674V18.7494" stroke="black" stroke-width="1.5" stroke-linecap="round" stroke-linejoin="round"/>
</svg>
