<svg width="20" height="20" viewBox="0 0 20 20" fill="none" xmlns="http://www.w3.org/2000/svg">
<path d="M18.4167 13.5417C17.1167 13.5417 15.7083 13.325 14.5167 12.8917H14.1917C13.8667 12.8917 13.65 13 13.4333 13.2167L11.05 15.6C8.01667 13.975 5.41667 11.4833 3.9 8.45L6.28333 6.06667C6.60833 5.74167 6.71667 5.30833 6.5 4.98333C6.175 3.79167 5.95833 2.38333 5.95833 1.08333C5.95833 0.541667 5.41667 0 4.875 0H1.08333C0.541667 0 0 0.541667 0 1.08333C0 11.2667 8.23333 19.5 18.4167 19.5C18.9583 19.5 19.5 18.9583 19.5 18.4167V14.625C19.5 14.0833 18.9583 13.5417 18.4167 13.5417ZM2.16667 2.16667H3.79167C3.9 3.14167 4.11667 4.11667 4.33333 4.98333L3.03333 6.28333C2.6 4.98333 2.275 3.575 2.16667 2.16667ZM17.3333 17.3333C15.925 17.225 14.5167 16.9 13.2167 16.4667L14.5167 15.1667C15.3833 15.3833 16.3583 15.6 17.3333 15.6V17.3333Z" fill="black"/>
</svg>
