<svg width="22" height="22" viewBox="0 0 22 22" fill="none" xmlns="http://www.w3.org/2000/svg">
<path d="M5 6V2H1V6M5 6H1M5 6V8C5 8.6 5.1 9.4 5.2 10L7 19.8V20C7 20.6 6.6 21 6 21H2C1.4 21 1 20.6 1 20V6M13 1V8L11 13V21" stroke="black" stroke-width="2" stroke-linecap="round" stroke-linejoin="round"/>
<path d="M17 5H21M17 9H21M17 13H21M17 17H21M17 1H19C19.5304 1 20.0391 1.21071 20.4142 1.58579C20.7893 1.96086 21 2.46957 21 3V19C21 19.5304 20.7893 20.0391 20.4142 20.4142C20.0391 20.7893 19.5304 21 19 21H17M9 2H13V8H9V2Z" stroke="black" stroke-width="2" stroke-linecap="round" stroke-linejoin="round"/>
</svg>
