<svg width="13" height="26" viewBox="0 0 13 26" fill="none" xmlns="http://www.w3.org/2000/svg">
<path d="M0.899902 14.1006C0.899902 12.5093 1.47936 10.9832 2.51082 9.85795C3.54227 8.73273 4.94121 8.10059 6.3999 8.10059C7.85859 8.10059 9.25754 8.73273 10.289 9.85795C11.3204 10.9832 11.8999 12.5093 11.8999 14.1006V20.1006C11.8999 22.3638 11.8999 23.4942 11.2553 24.1974C10.6107 24.9006 9.5745 24.9006 7.4999 24.9006H5.2999C3.2253 24.9006 2.1891 24.9006 1.5445 24.1974C0.899902 23.4942 0.899902 22.3638 0.899902 20.1006V14.1006Z" stroke="black" stroke-width="1.8" stroke-linecap="round" stroke-linejoin="round"/>
<path d="M4.1999 8.10039V6.90039C4.1999 5.76879 4.1999 5.20359 4.5222 4.85199C4.8445 4.50039 5.3626 4.50039 6.3999 4.50039M6.3999 4.50039C7.4372 4.50039 7.9553 4.50039 8.2776 4.85199C8.5999 5.20359 8.5999 5.76879 8.5999 6.90039V8.10039M6.3999 4.50039V0.900391M6.3999 0.900391H4.1999M6.3999 0.900391H9.4194C10.2523 0.900622 11.0543 1.24441 11.6645 1.86279L11.8999 2.10039M0.899902 14.1004H11.8999" stroke="black" stroke-width="1.8" stroke-linecap="round" stroke-linejoin="round"/>
</svg>
