<svg width="22" height="24" viewBox="0 0 22 24" fill="none" xmlns="http://www.w3.org/2000/svg">
<path d="M21.3168 7.46667C20.489 7.48846 19.6707 7.28574 18.9488 6.88C18.3719 6.54891 17.7151 6.38286 17.0502 6.4V5.33333C17.878 5.31154 18.6963 5.51426 19.4182 5.92C19.9951 6.25109 20.6519 6.41714 21.3168 6.4M21.3168 4.26667C20.6519 4.28381 19.9951 4.11775 19.4182 3.78667C18.6963 3.38093 17.878 3.1782 17.0502 3.2V4.26667C17.7151 4.24953 18.3719 4.41558 18.9488 4.74667C19.6707 5.1524 20.489 5.35513 21.3168 5.33333M21.3168 8.53333C20.6519 8.55047 19.9951 8.38442 19.4182 8.05333C18.6963 7.6476 17.878 7.44487 17.0502 7.46667V8.53333C17.7151 8.51619 18.3719 8.68225 18.9488 9.01333C19.6707 9.41907 20.489 9.6218 21.3168 9.6M8.51683 11.4453C11.0358 10.9589 13.528 10.343 15.9835 9.6V2.13333C15.9835 2.13333 9.05017 0 5.85017 0C4.42563 0.00400979 3.05122 0.526206 1.98342 1.46914C0.915617 2.41207 0.227384 3.71132 0.0471559 5.12441C-0.133073 6.53751 0.207017 7.96791 1.00396 9.14867C1.8009 10.3294 3.00024 11.1799 4.37817 11.5413L5.31683 18.1333H6.3835C6.42616 18.6417 6.58976 19.1326 6.86066 19.5649C7.13157 19.9973 7.50192 20.3586 7.94083 20.6187C8.4357 20.9129 8.84666 21.3293 9.1343 21.828C9.42195 22.3267 9.57663 22.891 9.5835 23.4667H10.6502C10.6453 22.7318 10.4563 22.01 10.1004 21.3671C9.74446 20.7242 9.23301 20.1808 8.61283 19.7867C7.86617 19.2 7.45017 18.8053 7.45017 18.1333H8.51683M5.85017 8.53333C5.32275 8.53333 4.80718 8.37694 4.36865 8.08392C3.93012 7.7909 3.58832 7.37443 3.38649 6.88716C3.18465 6.39989 3.13185 5.86371 3.23474 5.34643C3.33763 4.82914 3.59161 4.35399 3.96455 3.98105C4.33749 3.60811 4.81264 3.35413 5.32993 3.25124C5.84721 3.14834 6.38339 3.20115 6.87066 3.40299C7.35793 3.60482 7.7744 3.94661 8.06742 4.38515C8.36044 4.82368 8.51683 5.33925 8.51683 5.86667C8.51683 6.57391 8.23588 7.25219 7.73579 7.75228C7.23569 8.25238 6.55741 8.53333 5.85017 8.53333Z" fill="black"/>
</svg>
