<svg width="23" height="19" viewBox="0 0 23 19" fill="none" xmlns="http://www.w3.org/2000/svg">
<path d="M13.2588 3.49967C13.2588 2.92504 13.0306 2.37394 12.6242 1.96761C12.2179 1.56128 11.6668 1.33301 11.0922 1.33301C10.5175 1.33301 9.96643 1.56128 9.5601 1.96761C9.15377 2.37394 8.9255 2.92504 8.9255 3.49967C8.9255 5.30559 9.65133 6.74967 11.0922 7.83301H11.0835M11.0835 7.83301L19.7187 12.63C20.0567 12.8177 20.3383 13.0923 20.5343 13.4255C20.7303 13.7587 20.8336 14.1382 20.8335 14.5248V15.4163C20.8335 15.991 20.6052 16.5421 20.1989 16.9484C19.7926 17.3547 19.2415 17.583 18.6668 17.583H3.50016C2.92553 17.583 2.37443 17.3547 1.9681 16.9484C1.56177 16.5421 1.3335 15.991 1.3335 15.4163V14.5248C1.33339 14.1382 1.43671 13.7587 1.63272 13.4255C1.82873 13.0923 2.11031 12.8177 2.44825 12.63L11.0835 7.83301Z" stroke="black" stroke-width="2.66667" stroke-linecap="round" stroke-linejoin="round"/>
</svg>
