<svg width="24" height="17" viewBox="0 0 24 17" fill="none" xmlns="http://www.w3.org/2000/svg">
<path d="M0 8.1375C0 7.49583 0.228667 6.95139 0.686 6.50417C1.14333 6.05694 1.69244 5.83333 2.33333 5.83333V2.33333C2.33333 1.69167 2.562 1.14256 3.01933 0.686C3.47667 0.229444 4.02578 0.000777778 4.66667 0H18.6667C19.3083 0 19.8578 0.228666 20.3152 0.686C20.7725 1.14333 21.0008 1.69244 21 2.33333V5.83333C21.6417 5.83333 22.1912 6.062 22.6485 6.51933C23.1058 6.97667 23.3341 7.52578 23.3333 8.16667V12.425C23.3333 12.8722 23.1828 13.2467 22.8818 13.5485C22.5808 13.8503 22.2063 14.0008 21.7583 14L21.1167 15.9542C21.0778 16.0708 21.0097 16.1634 20.9125 16.2318C20.8153 16.3003 20.7083 16.3341 20.5917 16.3333H20.2417C20.125 16.3333 20.0181 16.2991 19.9208 16.2307C19.8236 16.1622 19.7556 16.0701 19.7167 15.9542L19.075 14H4.25833L3.61667 15.9542C3.57778 16.0708 3.50972 16.1634 3.4125 16.2318C3.31528 16.3003 3.20833 16.3341 3.09167 16.3333H2.74167C2.625 16.3333 2.51806 16.2991 2.42083 16.2307C2.32361 16.1622 2.25556 16.0701 2.21667 15.9542L1.575 14C1.12778 14 0.753667 13.8495 0.452667 13.5485C0.151667 13.2475 0.000777778 12.873 0 12.425V8.1375ZM12.8333 5.83333H18.6667V2.33333H12.8333V5.83333ZM4.66667 5.83333H10.5V2.33333H4.66667V5.83333Z" fill="black"/>
</svg>
