<svg width="15" height="25" viewBox="0 0 15 25" fill="none" xmlns="http://www.w3.org/2000/svg">
<path d="M5.69121 24.1795C8.82514 24.1795 11.3713 21.6329 11.3713 18.499C11.3713 16.8447 10.686 15.3976 9.39064 14.2225C9.15154 14.0047 9.09721 13.8849 9.09721 13.5585L9.11904 3.78671C9.11904 1.51264 7.73686 0 5.69121 0C3.63443 0 2.25225 1.51264 2.25225 3.78671L2.26339 13.5585C2.26339 13.8849 2.20907 14.0047 1.98018 14.2225C0.674607 15.3976 0 16.8448 0 18.4985C0 21.6325 2.535 24.1795 5.69121 24.1795ZM5.69121 22.6005C3.42782 22.6005 1.58879 20.7508 1.58879 18.4985C1.58879 17.1382 2.23089 15.9088 3.38418 15.1362C3.72171 14.9073 3.85218 14.7007 3.85218 14.2545V3.85218C3.85218 2.48114 4.60293 1.59946 5.69075 1.59946C6.76836 1.59946 7.50843 2.48114 7.50843 3.85218V14.255C7.50843 14.7011 7.63889 14.9078 7.97643 15.1362C9.12971 15.9092 9.77182 17.1386 9.77182 18.499C9.77182 20.7512 7.94346 22.6014 5.69075 22.6014M11.1424 3.99425H13.5149C13.5988 3.99624 13.6823 3.98135 13.7604 3.95045C13.8385 3.91955 13.9096 3.87328 13.9694 3.81439C14.0293 3.75549 14.0767 3.68517 14.1088 3.6076C14.141 3.53003 14.1572 3.44679 14.1565 3.36282C14.1572 3.27882 14.1409 3.19554 14.1088 3.11793C14.0766 3.04033 14.0291 2.96999 13.9692 2.91109C13.9093 2.85218 13.8382 2.80592 13.7601 2.77505C13.682 2.74418 13.5984 2.72934 13.5144 2.73139H11.1419C11.058 2.7294 10.9745 2.74429 10.8964 2.77519C10.8183 2.80609 10.7473 2.85236 10.6874 2.91126C10.6276 2.97015 10.5802 3.04047 10.548 3.11804C10.5159 3.19562 10.4996 3.27886 10.5003 3.36282C10.5003 3.70036 10.7617 3.99425 11.1424 3.99425ZM11.1424 7.05157H13.5149C13.5988 7.05356 13.6823 7.03868 13.7603 7.00781C13.8383 6.97695 13.9094 6.93072 13.9692 6.87187C14.0291 6.81302 14.0765 6.74276 14.1087 6.66524C14.1408 6.58772 14.1571 6.50453 14.1565 6.42061C14.1572 6.3366 14.1409 6.25332 14.1088 6.17572C14.0766 6.09812 14.0291 6.02777 13.9692 5.96887C13.9093 5.90997 13.8382 5.86371 13.7601 5.83284C13.682 5.80197 13.5984 5.78712 13.5144 5.78918H11.1419C11.058 5.78719 10.9745 5.80208 10.8964 5.83298C10.8183 5.86388 10.7473 5.91015 10.6874 5.96904C10.6276 6.02794 10.5802 6.09826 10.548 6.17583C10.5159 6.2534 10.4996 6.33664 10.5003 6.42061C10.5003 6.75814 10.7617 7.05157 11.1424 7.05157ZM5.68007 21.1329C6.02693 21.1332 6.37042 21.0649 6.69079 20.932C7.01116 20.7991 7.30208 20.6041 7.54682 20.3583C7.79157 20.1125 7.9853 19.8208 8.11688 19.4999C8.24845 19.1789 8.31528 18.8352 8.3135 18.4883C8.3135 17.4655 7.73686 16.6275 6.89882 16.1706C6.55061 15.9858 6.43082 15.8549 6.43082 15.3219V9.54339C6.43082 8.97696 6.10443 8.63989 5.68007 8.63989C5.26686 8.63989 4.92932 8.97743 4.92932 9.54339V15.321C4.92932 15.854 4.80954 15.9849 4.46132 16.1697C3.62375 16.6265 3.04664 17.465 3.04664 18.4874C3.04487 18.8342 3.11169 19.178 3.24327 19.4989C3.37484 19.8199 3.56857 20.1116 3.81332 20.3574C4.05806 20.6032 4.34899 20.7981 4.66936 20.9311C4.98973 21.064 5.33322 21.1323 5.68007 21.132M11.1429 10.1084H13.5154C13.5993 10.1104 13.6827 10.0955 13.7608 10.0647C13.8388 10.0338 13.9099 9.98757 13.9697 9.92873C14.0295 9.86988 14.077 9.79961 14.1091 9.7221C14.1413 9.64458 14.1576 9.56139 14.157 9.47746C14.1578 9.39292 14.1417 9.30906 14.1098 9.23079C14.0778 9.15252 14.0305 9.08142 13.9707 9.02163C13.9109 8.96184 13.8398 8.91458 13.7616 8.88259C13.6833 8.85061 13.5994 8.83455 13.5149 8.83536H11.1424C11.0579 8.83461 10.9741 8.85072 10.8959 8.88273C10.8176 8.91474 10.7466 8.96202 10.6869 9.0218C10.6271 9.08158 10.5799 9.15266 10.5479 9.2309C10.516 9.30914 10.4999 9.39296 10.5007 9.47746C10.5007 9.815 10.7621 10.1084 11.1429 10.1084ZM11.1429 13.1667H13.5154C13.5999 13.1674 13.6837 13.1513 13.7619 13.1193C13.8401 13.0873 13.9112 13.04 13.9709 12.9802C14.0306 12.9205 14.0779 12.8494 14.1098 12.7711C14.1418 12.6929 14.1578 12.6091 14.157 12.5246C14.1576 12.4406 14.1413 12.3574 14.1091 12.2798C14.0769 12.2023 14.0294 12.132 13.9695 12.0731C13.9096 12.0143 13.8385 11.9681 13.7604 11.9372C13.6823 11.9064 13.5988 11.8916 13.5149 11.8936H11.1424C11.0584 11.8916 10.975 11.9065 10.8969 11.9374C10.8188 11.9683 10.7477 12.0146 10.6879 12.0735C10.628 12.1324 10.5806 12.2027 10.5485 12.2803C10.5163 12.3578 10.5001 12.4411 10.5007 12.525C10.5 12.6095 10.5161 12.6934 10.5481 12.7716C10.5801 12.8498 10.6274 12.9208 10.6872 12.9806C10.747 13.0403 10.8181 13.0875 10.8963 13.1195C10.9745 13.1514 11.0584 13.1675 11.1429 13.1667Z" fill="black"/>
</svg>
