<svg width="22" height="22" viewBox="0 0 22 22" fill="none" xmlns="http://www.w3.org/2000/svg">
<path d="M0.75 4.75C0.75 1.44 1.44 0.75 4.75 0.75H16.75C20.06 0.75 20.75 1.44 20.75 4.75V16.75C20.75 20.06 20.06 20.75 16.75 20.75H4.75C1.44 20.75 0.75 20.06 0.75 16.75V4.75Z" stroke="black" stroke-width="1.5" stroke-linecap="round" stroke-linejoin="round"/>
<path d="M4.75 17.75H8.75" stroke="black" stroke-width="1.5" stroke-linecap="round"/>
<path d="M16.75 17.759V17.75" stroke="black" stroke-width="2" stroke-linecap="round" stroke-linejoin="round"/>
<path d="M10.75 12.75C12.9591 12.75 14.75 10.9591 14.75 8.75C14.75 6.54086 12.9591 4.75 10.75 4.75C8.54086 4.75 6.75 6.54086 6.75 8.75C6.75 10.9591 8.54086 12.75 10.75 12.75Z" stroke="black" stroke-width="1.5" stroke-linecap="round" stroke-linejoin="round"/>
<path d="M14.25 8.75H15.75M10.75 12.25V13.75M7.25 8.75H5.75M10.75 5.25V3.75" stroke="black" stroke-width="1.5" stroke-linecap="round"/>
</svg>
