<svg width="25" height="18" viewBox="0 0 25 18" fill="none" xmlns="http://www.w3.org/2000/svg">
<path fill-rule="evenodd" clip-rule="evenodd" d="M22.1736 6.60238C19.5071 3.93603 15.8906 2.4381 12.1197 2.4381C8.34882 2.4381 4.73236 3.93603 2.06585 6.60238C1.8361 6.82449 1.52829 6.94748 1.20874 6.94486C0.889183 6.94223 0.583444 6.8142 0.35737 6.58834C0.131296 6.36248 0.00297765 6.05686 5.11711e-05 5.73731C-0.0028753 5.41776 0.119825 5.10984 0.341724 4.87988C6.8466 -1.62662 17.3928 -1.62662 23.8977 4.87988C24.0141 4.99236 24.1069 5.12688 24.1707 5.27561C24.2345 5.42433 24.268 5.58427 24.2693 5.74609C24.2707 5.90792 24.2398 6.06839 24.1784 6.21814C24.1171 6.36789 24.0265 6.50392 23.912 6.6183C23.7975 6.73267 23.6614 6.82311 23.5116 6.88431C23.3618 6.94552 23.2013 6.97628 23.0395 6.9748C22.8776 6.97332 22.7177 6.93963 22.5691 6.87568C22.4204 6.81174 22.286 6.71883 22.1736 6.60238ZM18.727 10.049C17.8593 9.18129 16.8292 8.49298 15.6956 8.02337C14.5619 7.55376 13.3468 7.31206 12.1197 7.31206C10.8926 7.31206 9.67756 7.55376 8.54388 8.02337C7.4102 8.49298 6.38013 9.18129 5.51247 10.049C5.28144 10.2643 4.97586 10.3815 4.66012 10.3759C4.34439 10.3703 4.04313 10.2424 3.81984 10.0191C3.59654 9.79584 3.46864 9.49459 3.46306 9.17885C3.45749 8.86311 3.57469 8.55753 3.78997 8.3265C5.99932 6.11761 8.99556 4.8767 12.1197 4.8767C15.2439 4.8767 18.2401 6.11761 20.4495 8.3265C20.6648 8.55753 20.782 8.86311 20.7764 9.17885C20.7708 9.49459 20.6429 9.79584 20.4196 10.0191C20.1963 10.2424 19.8951 10.3703 19.5793 10.3759C19.2636 10.3815 18.958 10.2643 18.727 10.049ZM15.2787 13.4972C14.4407 12.6592 13.3041 12.1885 12.1189 12.1885C10.9338 12.1885 9.79715 12.6592 8.9591 13.4972C8.84662 13.6136 8.71209 13.7064 8.56337 13.7702C8.41465 13.834 8.25471 13.8675 8.09288 13.8689C7.93106 13.8702 7.77059 13.8393 7.62084 13.7779C7.47109 13.7166 7.33506 13.626 7.22068 13.5115C7.1063 13.397 7.01587 13.2609 6.95466 13.1111C6.89345 12.9613 6.86269 12.8008 6.86417 12.639C6.86565 12.4772 6.89935 12.3173 6.96329 12.1686C7.02723 12.0199 7.12014 11.8855 7.2366 11.7731C8.53174 10.4782 10.2882 9.75066 12.1197 9.75066C13.9512 9.75066 15.7077 10.4782 17.0028 11.7731C17.2181 12.0042 17.3353 12.3097 17.3298 12.6255C17.3242 12.9412 17.1963 13.2425 16.973 13.4658C16.7497 13.6891 16.4484 13.817 16.1327 13.8225C15.817 13.8281 15.5114 13.7109 15.2803 13.4956M10.6848 15.2181C10.8735 15.0294 11.0974 14.8798 11.3439 14.7777C11.5904 14.6756 11.8546 14.623 12.1213 14.623C12.3881 14.623 12.6523 14.6756 12.8988 14.7777C13.1453 14.8798 13.3692 15.0294 13.5578 15.2181C13.7861 15.4466 13.9143 15.7564 13.9143 16.0794C13.9143 16.4023 13.7861 16.7121 13.5578 16.9406L12.981 17.5175C12.7525 17.7457 12.4427 17.8739 12.1197 17.8739C11.7968 17.8739 11.487 17.7457 11.2585 17.5175L10.6832 16.9422C10.455 16.7137 10.3268 16.404 10.3268 16.081C10.3268 15.758 10.455 15.4483 10.6832 15.2198" fill="black"/>
</svg>
